<svg xmlns="http://www.w3.org/2000/svg" xmlns:xlink="http://www.w3.org/1999/xlink" width="2270" height="620" viewBox="0 0 2270 620"><defs><linearGradient id="a" x1="0.888" y1="0.081" x2="0.018" y2="0.904" gradientUnits="objectBoundingBox"><stop offset="0" stop-color="#e39ad7"/><stop offset="1" stop-color="#ffc97d"/></linearGradient><clipPath id="b"><rect width="2270" height="47" fill="none"/></clipPath></defs><rect width="1920" height="605" transform="translate(167)" fill="url(#a)"/><g transform="translate(0 573)" clip-path="url(#b)"><g transform="translate(163 -1032)"><ellipse cx="149.5" cy="53.5" rx="149.5" ry="53.5" transform="translate(-90 1032)" fill="#fff"/></g><g transform="translate(408 -1032)"><ellipse cx="149.5" cy="53.5" rx="149.5" ry="53.5" transform="translate(-90 1032)" fill="#fff"/></g><g transform="translate(653 -1032)"><ellipse cx="149.5" cy="53.5" rx="149.5" ry="53.5" transform="translate(-90 1032)" fill="#fff"/></g><g transform="translate(898 -1032)"><ellipse cx="149.5" cy="53.5" rx="149.5" ry="53.5" transform="translate(-90 1032)" fill="#fff"/></g><g transform="translate(1143 -1032)"><ellipse cx="149.5" cy="53.5" rx="149.5" ry="53.5" transform="translate(-90 1032)" fill="#fff"/></g><g transform="translate(1388 -1032)"><ellipse cx="149.5" cy="53.5" rx="149.5" ry="53.5" transform="translate(-90 1032)" fill="#fff"/></g><g transform="translate(1633 -1032)"><ellipse cx="149.5" cy="53.5" rx="149.5" ry="53.5" transform="translate(-90 1032)" fill="#fff"/></g><g transform="translate(1878 -1032)"><ellipse cx="149.5" cy="53.5" rx="149.5" ry="53.5" transform="translate(-90 1032)" fill="#fff"/></g><g transform="translate(2123 -1032)"><ellipse cx="149.5" cy="53.5" rx="149.5" ry="53.5" transform="translate(-90 1032)" fill="#fff"/></g><g transform="translate(2368 -1032)"><ellipse cx="149.5" cy="53.5" rx="149.5" ry="53.5" transform="translate(-90 1032)" fill="#fff"/></g></g></svg>